# xmcd
#
# Track frame offsets:
#	150
#	16772
#	33943
#	57022
#	73110
#	90361
#	104367
#	118598
#	135816
#	153108
#
# Disc length: 2304 seconds
#
# Revision: 0
# Processed by: cddbd v1.5.2PL0 Copyright (c) Steve Scherf et al.
# Submitted via: dBpowerAMP V4.0
#
DISCID=6a08fe0a
DTITLE=pablo olivares - luz de mi vida
DYEAR=2004
DGENRE=Rock and Roll
TTITLE0=lus de mi vida
TTITLE1=de jesus sea la gloria
TTITLE2=yo quiero aarte mas
TTITLE3=etraterrestre
TTITLE4=en el camino
TTITLE5=la historia de un carpintero
TTITLE6=sordo, ciego y desnudo
TTITLE7=wit yo
TTITLE8=ella dice no
TTITLE9=today
EXTD=
EXTT0=
EXTT1=
EXTT2=
EXTT3=
EXTT4=
EXTT5=
EXTT6=
EXTT7=
EXTT8=
EXTT9=
PLAYORDER=
